<?xml version="1.0" encoding="utf-8"?><!-- Uploaded to: SVG Repo, www.svgrepo.com, Generator: SVG Repo Mixer Tools -->
<svg fill="#000000" width="800px" height="800px" viewBox="0 0 24 24" id="calendar" data-name="Flat Color" xmlns="http://www.w3.org/2000/svg" class="icon flat-color"><rect id="primary" x="2" y="3" width="20" height="19" rx="2" style="fill: rgb(0, 0, 0);"></rect><path id="secondary" d="M20,3H4A2,2,0,0,0,2,5V8H22V5A2,2,0,0,0,20,3Z" style="fill: rgb(44, 169, 188);"></path><path id="primary-2" data-name="primary" d="M17,6a1,1,0,0,1-1-1V3a1,1,0,0,1,2,0V5A1,1,0,0,1,17,6ZM13,5V3a1,1,0,0,0-2,0V5a1,1,0,0,0,2,0ZM8,5V3A1,1,0,0,0,6,3V5A1,1,0,0,0,8,5Z" style="fill: rgb(0, 0, 0);"></path></svg>