<?xml version="1.0" encoding="iso-8859-1"?>
<!-- Uploaded to: SVG Repo, www.svgrepo.com, Generator: SVG Repo Mixer Tools -->
<svg version="1.1" id="Layer_1" xmlns="http://www.w3.org/2000/svg" xmlns:xlink="http://www.w3.org/1999/xlink" 
	 viewBox="0 0 512 512" xml:space="preserve">
<g>
	<path style="fill:#D3EFFD;" d="M329.381,281.766V170.806c0-20.317-16.471-36.788-36.788-36.788h-41.005h-41.006
		c-20.317,0-36.788,16.471-36.788,36.788v110.988L329.381,281.766z"/>
	<path style="fill:#D3EFFD;" d="M262.189,106.617h-21.201c-15.563,0-28.296-12.733-28.296-28.296v-42.43
		c0-15.563,12.733-28.296,28.296-28.296h21.201c15.563,0,28.296,12.733,28.296,28.296V78.32
		C290.486,93.884,277.752,106.617,262.189,106.617z"/>
</g>
<g>
	<path style="fill:#73AFD6;" d="M290.486,269.134c-4.196,0-7.596-3.401-7.596-7.596v-71.405c0-4.195,3.4-7.596,7.596-7.596
		s7.596,3.401,7.596,7.596v71.405C298.082,265.733,294.682,269.134,290.486,269.134z"/>
	<path style="fill:#73AFD6;" d="M212.692,269.134c-4.196,0-7.596-3.401-7.596-7.596v-71.405c0-4.195,3.4-7.596,7.596-7.596
		s7.596,3.401,7.596,7.596v71.405C220.288,265.733,216.888,269.134,212.692,269.134z"/>
</g>
<g>
	<rect x="164.738" y="278.185" style="fill:#5D5D5D;" width="181.226" height="226.217"/>
	<rect x="122.483" y="261.534" style="fill:#5D5D5D;" width="258.212" height="33.299"/>
</g>
<circle style="fill:#3E3B43;" cx="255.134" cy="367.922" r="38.893"/>
<path style="fill:#FFD578;" d="M267.372,372.26h-4.643v-8.681h4.643c4.196,0,7.596-3.401,7.596-7.596s-3.4-7.596-7.596-7.596
	h-24.477c-4.196,0-7.596,3.401-7.596,7.596s3.4,7.596,7.596,7.596h4.642v8.681h-4.642c-4.196,0-7.596,3.401-7.596,7.596
	s3.4,7.596,7.596,7.596h24.477c4.196,0,7.596-3.401,7.596-7.596S271.567,372.26,267.372,372.26z"/>
<path style="fill:#3E3B43;" d="M299.26,470.991h-88.128c-7.328,0-13.324-5.996-13.324-13.324l0,0
	c0-7.328,5.996-13.324,13.324-13.324h88.128c7.328,0,13.324,5.996,13.324,13.324l0,0
	C312.584,464.995,306.588,470.991,299.26,470.991z"/>
<g>
	<path style="fill:#73AFD6;" d="M290.486,52.896V35.892c0-15.563-12.733-28.297-28.296-28.297h-21.201
		c-6.802,0-13.064,2.433-17.959,6.471C228.394,22.113,250.449,51.13,290.486,52.896z"/>
	<path style="fill:#73AFD6;" d="M257.444,206.75h-13.17c-1.262,0-2.284-1.023-2.284-2.284v-61.573c0-0.616,0.249-1.206,0.69-1.636
		l6.585-6.415c0.887-0.864,2.301-0.864,3.188,0l6.585,6.415c0.442,0.429,0.69,1.02,0.69,1.636v61.573
		C259.728,205.728,258.705,206.75,257.444,206.75z"/>
</g>
<g>
	<rect x="82.034" y="25.473" style="fill:#D3EFFD;" width="67.465" height="93.019"/>
	<circle style="fill:#D3EFFD;" cx="385.971" cy="71.982" r="43.998"/>
</g>
<path style="fill:#73AFD6;" d="M385.967,96.587c-4.196,0-7.596-3.401-7.596-7.596V71.979c0-1.836,0.664-3.61,1.873-4.993
	l12.974-14.872c2.757-3.162,7.556-3.489,10.718-0.731c3.161,2.758,3.488,7.557,0.73,10.718l-11.102,12.726V88.99
	C393.564,93.186,390.164,96.587,385.967,96.587z"/>
<rect x="164.627" y="294.836" style="fill:#3E3B43;" width="181.459" height="20.712"/>
<path d="M240.988,114.213h21.202c19.791,0,35.893-16.101,35.893-35.893V35.892C298.082,16.101,281.98,0,262.189,0h-21.202
	c-19.791,0-35.893,16.101-35.893,35.892v42.43C205.095,98.112,221.198,114.213,240.988,114.213z M262.189,99.021h-21.202
	c-11.415,0-20.7-9.286-20.7-20.7V35.892c0-4.242,1.286-8.188,3.484-11.474c10.286,10.818,33.308,31.95,59.116,35.612v18.292
	C282.889,89.735,273.604,99.021,262.189,99.021z M262.189,15.193c11.415,0,20.7,9.286,20.7,20.699v8.743
	c-19.007-3.593-37.043-19.461-46.381-28.941c1.444-0.32,2.94-0.502,4.48-0.502h21.201V15.193z"/>
<path d="M380.698,253.942h-43.72v-83.135c0-24.474-19.91-44.384-44.383-44.384H251.59h-41.005c-24.474,0-44.384,19.91-44.384,44.384
	v83.135h-43.719c-4.196,0-7.596,3.401-7.596,7.596v33.299c0,4.195,3.4,7.596,7.596,7.596h34.664v201.97
	c0,4.195,3.4,7.596,7.596,7.596H345.97c4.196,0,7.596-3.401,7.596-7.596v-201.97H380.7c4.196,0,7.596-3.401,7.596-7.596v-33.299
	C388.294,257.343,384.894,253.942,380.698,253.942z M250.316,157.403l1.273-1.241l1.273,1.241v42.481h-2.546L250.316,157.403
	L250.316,157.403z M181.392,170.806c0-16.097,13.096-29.192,29.192-29.192h34.166l-7.331,7.143c-1.468,1.43-2.296,3.392-2.296,5.441
	v53.282c0,4.195,3.4,7.596,7.596,7.596h17.739c4.196,0,7.596-3.401,7.596-7.596v-53.282c0-2.049-0.827-4.011-2.296-5.441
	l-7.331-7.143h34.166c16.097,0,29.191,13.095,29.191,29.192v83.135h-23.703v-63.809c0-4.195-3.4-7.596-7.596-7.596
	c-4.196,0-7.596,3.401-7.596,7.596v63.809h-62.601v-63.809c0-4.195-3.4-7.596-7.596-7.596s-7.596,3.401-7.596,7.596v63.809h-23.703
	v-83.135H181.392z M338.371,496.807H172.337V302.433h166.035L338.371,496.807L338.371,496.807z M373.101,287.241h-27.134H164.741
	h-34.664v-18.106h243.025L373.101,287.241L373.101,287.241z"/>
<path d="M255.133,414.413c25.637,0,46.493-20.856,46.493-46.493c0-25.636-20.857-46.492-46.493-46.492s-46.492,20.856-46.492,46.492
	C208.639,393.556,229.496,414.413,255.133,414.413z M255.133,336.62c17.26,0,31.301,14.041,31.301,31.3
	c0,17.26-14.041,31.301-31.301,31.301c-17.259,0-31.3-14.041-31.3-31.301C223.832,350.662,237.874,336.62,255.133,336.62z"/>
<path d="M211.131,478.588h88.129c11.536,0,20.92-9.385,20.92-20.92s-9.385-20.92-20.92-20.92h-88.129
	c-11.536,0-20.92,9.385-20.92,20.92S199.596,478.588,211.131,478.588z M211.131,451.939h88.129c3.158,0,5.728,2.57,5.728,5.728
	c0,3.158-2.57,5.728-5.728,5.728h-88.129c-3.158,0-5.728-2.57-5.728-5.728C205.403,454.508,207.973,451.939,211.131,451.939z"/>
<path d="M157.101,118.486V25.471c0-4.195-3.4-7.596-7.596-7.596H82.034c-4.196,0-7.596,3.401-7.596,7.596v93.016
	c0,4.195,3.4,7.596,7.596,7.596h67.47C153.7,126.083,157.101,122.682,157.101,118.486z M141.909,110.89H89.63V33.067h52.277v77.823
	H141.909z"/>
<path d="M385.967,20.384c-28.449,0-51.595,23.145-51.595,51.595s23.146,51.595,51.595,51.595s51.595-23.145,51.595-51.595
	S414.417,20.384,385.967,20.384z M385.967,108.381c-20.072,0-36.402-16.33-36.402-36.402s16.33-36.402,36.402-36.402
	c20.072,0,36.402,16.33,36.402,36.402S406.041,108.381,385.967,108.381z"/>
<path d="M403.936,51.382c-3.162-2.758-7.961-2.431-10.718,0.731l-12.974,14.872c-1.207,1.384-1.873,3.157-1.873,4.993v17.012
	c0,4.195,3.4,7.596,7.596,7.596c4.196,0,7.596-3.401,7.596-7.596V74.826L404.665,62.1C407.424,58.939,407.097,54.14,403.936,51.382z
	"/>
<path d="M105.074,60.583h22.776c4.195,0,7.596-3.401,7.596-7.596s-3.401-7.596-7.596-7.596h-22.776
	c-4.196,0-7.596,3.401-7.596,7.596S100.879,60.583,105.074,60.583z"/>
<path d="M105.074,79.575h22.776c4.195,0,7.596-3.401,7.596-7.596c0-4.195-3.401-7.596-7.596-7.596h-22.776
	c-4.196,0-7.596,3.401-7.596,7.596C97.478,76.174,100.879,79.575,105.074,79.575z"/>
</svg>